<svg xmlns="http://www.w3.org/2000/svg" width="24" height="24" viewBox="0 0 24 24" fill="none">
  <path d="M21.582,6.186 c-0.23-0.854-0.908-1.532-1.762-1.762C18.254,4,12,4,12,4S5.746,4,4.18,4.424c-0.854,0.23-1.532,0.908-1.762,1.762 C2,7.752,2,12,2,12s0,4.248,0.418,5.814c0.23,0.854,0.908,1.532,1.762,1.762C5.746,20,12,20,12,20s6.254,0,7.82-0.424 c0.854-0.23,1.532-0.908,1.762-1.762C22,16.248,22,12,22,12S22,7.752,21.582,6.186z" fill="#FF0000"/>
  <path d="M10,15.5l6-3.5l-6-3.5V15.5z" fill="#FFFFFF"/>
</svg>